<svg width="172" height="172" viewBox="0 0 172 172" fill="none" xmlns="http://www.w3.org/2000/svg">
<g clip-path="url(#clip0_4103_817)">
<rect x="8" y="8" width="156" height="156" rx="78" fill="white"/>
<path d="M79.3642 35.8903C5.93695 62.8757 -58.2013 -22.9467 -119.686 4.48106C-156.399 13.3287 -230.534 31.9973 -233.365 35.8903C-236.196 39.7832 -238.968 125.989 -240 168.605L305.396 258.409C342.552 212.549 406.336 107.733 364.226 55.3551C311.589 -10.1176 152.791 8.90489 79.3642 35.8903Z" fill="#50D4FC" fill-opacity="0.6"/>
<path d="M152 67.3691C90.2959 90.0516 38.7735 -16.4552 -12.8944 6.59909C-43.7465 14.036 -106.045 29.7278 -108.424 33C-110.803 36.2722 -113.133 126.74 -114 162.561L344.32 238.045C375.544 199.498 429.145 111.395 393.758 67.3691C349.524 12.3363 213.704 44.6867 152 67.3691Z" fill="#3BB8ED" fill-opacity="0.6"/>
<path d="M62.3758 60.008C0.671661 82.6905 -53.2265 10.5528 -104.894 33.6071C-135.746 41.044 -198.045 56.7358 -200.424 60.008C-202.803 63.2802 -205.133 135.74 -206 171.561L252.32 247.045C283.544 208.498 337.145 120.395 301.758 76.3691C257.524 21.3362 124.08 37.3255 62.3758 60.008Z" fill="#47B8E9" fill-opacity="0.69"/>
</g>
<rect x="4" y="4" width="164" height="164" rx="82" stroke="#ADE5FC" stroke-width="8"/>
<defs>
<clipPath id="clip0_4103_817">
<rect x="8" y="8" width="156" height="156" rx="78" fill="white"/>
</clipPath>
</defs>
</svg>
