<?xml version="1.0" encoding="UTF-8"?>
<!--Generator: Apple Native CoreSVG 341-->
<!DOCTYPE svg
PUBLIC "-//W3C//DTD SVG 1.1//EN"
       "http://www.w3.org/Graphics/SVG/1.1/DTD/svg11.dtd">
<svg version="1.1" xmlns="http://www.w3.org/2000/svg" xmlns:xlink="http://www.w3.org/1999/xlink" viewBox="0 0 3300 2200">
 <!--glyph: "", point size: 100.0, font version: "21.1d1e1", template writer version: "138.0.0"-->
 <style>.defaults {-sfsymbols-variable-value-mode:color;-sfsymbols-draw-reverses-motion-groups:false}

.monochrome-0 {-sfsymbols-motion-group:1;-sfsymbols-layer-tags:-ac7fd9bafa6d48b _enclosure.stroke circle}
.monochrome-1 {-sfsymbols-variable-threshold:0.51;-sfsymbols-motion-group:0;-sfsymbols-always-pulses:true;-sfsymbols-layer-tags:-ac7fd9bafa6d48b 7f37cdc994c5ebb9 water.waves}
.monochrome-2 {-sfsymbols-variable-threshold:0.0;-sfsymbols-motion-group:0;-sfsymbols-always-pulses:true;-sfsymbols-layer-tags:-ac7fd9bafa6d48b 7f37cdc994c5ebb9 water.waves}

.multicolor-0:black {-sfsymbols-motion-group:1;-sfsymbols-layer-tags:-ac7fd9bafa6d48b _enclosure.stroke circle}
.multicolor-1:black {-sfsymbols-variable-threshold:0.51;-sfsymbols-motion-group:0;-sfsymbols-always-pulses:true;-sfsymbols-layer-tags:-ac7fd9bafa6d48b 7f37cdc994c5ebb9 water.waves}
.multicolor-2:black {-sfsymbols-variable-threshold:0.0;-sfsymbols-motion-group:0;-sfsymbols-always-pulses:true;-sfsymbols-layer-tags:-ac7fd9bafa6d48b 7f37cdc994c5ebb9 water.waves}

.hierarchical-0:secondary {-sfsymbols-motion-group:1;-sfsymbols-layer-tags:-ac7fd9bafa6d48b _enclosure.stroke circle}
.hierarchical-1:primary {-sfsymbols-variable-threshold:0.51;-sfsymbols-motion-group:0;-sfsymbols-always-pulses:true;-sfsymbols-layer-tags:-ac7fd9bafa6d48b 7f37cdc994c5ebb9 water.waves}
.hierarchical-2:primary {-sfsymbols-variable-threshold:0.0;-sfsymbols-motion-group:0;-sfsymbols-always-pulses:true;-sfsymbols-layer-tags:-ac7fd9bafa6d48b 7f37cdc994c5ebb9 water.waves}

.SFSymbolsPreviewWireframe {fill:none;opacity:1.0;stroke:black;stroke-width:0.5}
</style>
 <g id="Notes">
  <rect height="2200" id="artboard" style="fill:white;opacity:1" width="3300" x="0" y="0"/>
  <line style="fill:none;stroke:black;opacity:1;stroke-width:0.5;" x1="263" x2="3036" y1="292" y2="292"/>
  <text style="stroke:none;fill:black;font-family:sans-serif;font-size:13;font-weight:bold;" transform="matrix(1 0 0 1 263 322)">Weight/Scale Variations</text>
  <text style="stroke:none;fill:black;font-family:sans-serif;font-size:13;text-anchor:middle;" transform="matrix(1 0 0 1 559.711 322)">Ultralight</text>
  <text style="stroke:none;fill:black;font-family:sans-serif;font-size:13;text-anchor:middle;" transform="matrix(1 0 0 1 856.422 322)">Thin</text>
  <text style="stroke:none;fill:black;font-family:sans-serif;font-size:13;text-anchor:middle;" transform="matrix(1 0 0 1 1153.13 322)">Light</text>
  <text style="stroke:none;fill:black;font-family:sans-serif;font-size:13;text-anchor:middle;" transform="matrix(1 0 0 1 1449.84 322)">Regular</text>
  <text style="stroke:none;fill:black;font-family:sans-serif;font-size:13;text-anchor:middle;" transform="matrix(1 0 0 1 1746.56 322)">Medium</text>
  <text style="stroke:none;fill:black;font-family:sans-serif;font-size:13;text-anchor:middle;" transform="matrix(1 0 0 1 2043.27 322)">Semibold</text>
  <text style="stroke:none;fill:black;font-family:sans-serif;font-size:13;text-anchor:middle;" transform="matrix(1 0 0 1 2339.98 322)">Bold</text>
  <text style="stroke:none;fill:black;font-family:sans-serif;font-size:13;text-anchor:middle;" transform="matrix(1 0 0 1 2636.69 322)">Heavy</text>
  <text style="stroke:none;fill:black;font-family:sans-serif;font-size:13;text-anchor:middle;" transform="matrix(1 0 0 1 2933.4 322)">Black</text>
  <line style="fill:none;stroke:black;opacity:1;stroke-width:0.5;" x1="263" x2="3036" y1="1903" y2="1903"/>
  <g transform="matrix(0.2 0 0 0.2 263 1933)">
   <path d="m46.2402 4.15039c21.7773 0 39.4531-17.627 39.4531-39.4043s-17.6758-39.4043-39.4531-39.4043c-21.7285 0-39.4043 17.627-39.4043 39.4043s17.6758 39.4043 39.4043 39.4043Zm0-7.42188c-17.6758 0-31.9336-14.3066-31.9336-31.9824s14.2578-31.9824 31.9336-31.9824 31.9824 14.3066 31.9824 31.9824-14.3066 31.9824-31.9824 31.9824Zm3.61328-17.7734v-28.4668c0-2.24609-1.46484-3.75977-3.71094-3.75977-2.14844 0-3.61328 1.51367-3.61328 3.75977v28.4668c0 2.19727 1.46484 3.71094 3.61328 3.71094 2.24609 0 3.71094-1.51367 3.71094-3.71094Zm-17.8223-10.5957h28.418c2.19727 0 3.71094-1.46484 3.71094-3.61328 0-2.19727-1.51367-3.71094-3.71094-3.71094h-28.418c-2.24609 0-3.75977 1.51367-3.75977 3.71094 0 2.14844 1.51367 3.61328 3.75977 3.61328Z"/>
  </g>
  <g transform="matrix(0.2 0 0 0.2 281.506 1933)">
   <path d="m58.5449 14.5508c27.4902 0 49.8047-22.3145 49.8047-49.8047s-22.3145-49.8047-49.8047-49.8047-49.8047 22.3145-49.8047 49.8047 22.3145 49.8047 49.8047 49.8047Zm0-8.30078c-22.9492 0-41.5039-18.5547-41.5039-41.5039s18.5547-41.5039 41.5039-41.5039 41.5039 18.5547 41.5039 41.5039-18.5547 41.5039-41.5039 41.5039Zm4.05273-23.0957v-36.9141c0-2.49023-1.70898-4.19922-4.15039-4.19922-2.39258 0-4.05273 1.70898-4.05273 4.19922v36.9141c0 2.44141 1.66016 4.15039 4.05273 4.15039 2.44141 0 4.15039-1.66016 4.15039-4.15039Zm-22.5586-14.4043h36.9629c2.44141 0 4.15039-1.61133 4.15039-4.00391 0-2.44141-1.70898-4.15039-4.15039-4.15039h-36.9629c-2.49023 0-4.15039 1.70898-4.15039 4.15039 0 2.39258 1.66016 4.00391 4.15039 4.00391Z"/>
  </g>
  <g transform="matrix(0.2 0 0 0.2 304.924 1933)">
   <path d="m74.8535 28.3203c35.1074 0 63.623-28.4668 63.623-63.5742s-28.5156-63.623-63.623-63.623-63.5742 28.5156-63.5742 63.623 28.4668 63.5742 63.5742 63.5742Zm0-9.08203c-30.127 0-54.4922-24.3652-54.4922-54.4922s24.3652-54.4922 54.4922-54.4922 54.4922 24.3652 54.4922 54.4922-24.3652 54.4922-54.4922 54.4922Zm4.44336-30.3223v-48.4863c0-2.73438-1.85547-4.63867-4.54102-4.63867-2.58789 0-4.44336 1.9043-4.44336 4.63867v48.4863c0 2.68555 1.85547 4.58984 4.44336 4.58984 2.68555 0 4.54102-1.85547 4.54102-4.58984Zm-28.7109-19.7754h48.4863c2.68555 0 4.58984-1.80664 4.58984-4.39453 0-2.73438-1.85547-4.58984-4.58984-4.58984h-48.4863c-2.73438 0-4.58984 1.85547-4.58984 4.58984 0 2.58789 1.85547 4.39453 4.58984 4.39453Z"/>
  </g>
  <text style="stroke:none;fill:black;font-family:sans-serif;font-size:13;font-weight:bold;" transform="matrix(1 0 0 1 263 1953)">Design Variations</text>
  <text style="stroke:none;fill:black;font-family:sans-serif;font-size:13;" transform="matrix(1 0 0 1 263 1971)">Symbols are supported in up to nine weights and three scales.</text>
  <text style="stroke:none;fill:black;font-family:sans-serif;font-size:13;" transform="matrix(1 0 0 1 263 1989)">For optimal layout with text and other symbols, vertically align</text>
  <text style="stroke:none;fill:black;font-family:sans-serif;font-size:13;" transform="matrix(1 0 0 1 263 2007)">symbols with the adjacent text.</text>
  <line style="fill:none;stroke:#00AEEF;stroke-width:0.5;opacity:1.0;" x1="776" x2="776" y1="1919" y2="1933"/>
  <g transform="matrix(0.2 0 0 0.2 776 1933)">
   <path d="m16.5527 0.78125c2.58789 0 3.85742-0.976562 4.78516-3.71094l20.5566-57.5195h0.244141l20.6055 57.5195c0.927734 2.73438 2.19727 3.71094 4.73633 3.71094 2.58789 0 4.24805-1.5625 4.24805-4.00391 0-0.830078-0.146484-1.61133-0.537109-2.63672l-22.9004-60.9863c-1.12305-2.97852-3.125-4.49219-6.25-4.49219-3.02734 0-5.07812 1.46484-6.15234 4.44336l-22.9004 61.084c-0.390625 1.02539-0.537109 1.80664-0.537109 2.63672 0 2.44141 1.5625 3.95508 4.10156 3.95508Zm10.2051-20.9473h30.6641c2.00195 0 3.66211-1.66016 3.66211-3.66211 0-2.05078-1.66016-3.66211-3.66211-3.66211h-30.6641c-2.00195 0-3.66211 1.61133-3.66211 3.66211 0 2.00195 1.66016 3.66211 3.66211 3.66211Z"/>
  </g>
  <line style="fill:none;stroke:#00AEEF;stroke-width:0.5;opacity:1.0;" x1="792.836" x2="792.836" y1="1919" y2="1933"/>
  <text style="stroke:none;fill:black;font-family:sans-serif;font-size:13;font-weight:bold;" transform="matrix(1 0 0 1 776 1953)">Margins</text>
  <text style="stroke:none;fill:black;font-family:sans-serif;font-size:13;" transform="matrix(1 0 0 1 776 1971)">Leading and trailing margins on the left and right side of each symbol</text>
  <text style="stroke:none;fill:black;font-family:sans-serif;font-size:13;" transform="matrix(1 0 0 1 776 1989)">can be adjusted by modifying the x-location of the margin guidelines.</text>
  <text style="stroke:none;fill:black;font-family:sans-serif;font-size:13;" transform="matrix(1 0 0 1 776 2007)">Modifications are automatically applied proportionally to all</text>
  <text style="stroke:none;fill:black;font-family:sans-serif;font-size:13;" transform="matrix(1 0 0 1 776 2025)">scales and weights.</text>
  <g transform="matrix(0.2 0 0 0.2 1289 1933)">
   <path d="m14.209 13.1348 7.86133 7.86133c4.29688 4.39453 9.32617 4.10156 13.8672-1.02539l60.6934-68.2129-4.88281-4.88281-60.2539 67.6758c-1.80664 1.95312-3.4668 2.44141-5.81055 0.0976562l-5.17578-5.12695c-2.29492-2.29492-1.80664-3.95508 0.195312-5.81055l67.4805-62.1582-4.88281-4.83398-68.0664 62.5977c-4.98047 4.58984-5.32227 9.47266-1.02539 13.8184Zm44.873-97.4609c-2.05078 2.00195-2.24609 4.88281-1.07422 6.78711 1.12305 1.80664 3.4668 3.02734 6.5918 2.24609 5.85938-1.66016 12.5977-2.39258 18.8965 0.927734l-2.68555 7.12891c-1.61133 4.00391-0.732422 6.88477 1.70898 9.42383l10.2539 10.3027c2.34375 2.39258 4.54102 2.44141 7.08008 1.95312l4.44336-0.732422 2.58789 2.53906-0.195312 2.24609c-0.0976562 2.29492 0.537109 4.29688 2.7832 6.49414l3.36914 3.32031c2.29492 2.29492 5.51758 2.49023 7.8125 0.195312l12.9883-13.0371c2.29492-2.34375 2.14844-5.37109-0.195312-7.66602l-3.41797-3.41797c-2.19727-2.19727-4.05273-3.02734-6.34766-2.88086l-2.34375 0.244141-2.44141-2.44141 1.02539-4.6875c0.634766-2.73438-0.244141-4.98047-2.88086-7.61719l-11.2793-11.1816c-12.9395-12.8418-35.5957-11.0352-46.6797-0.146484Zm7.08008 2.05078c8.78906-6.39648 25.9766-5.66406 33.6914 1.95312l12.3047 12.207c1.02539 1.02539 1.2207 1.80664 0.927734 3.32031l-1.46484 6.64062 6.73828 6.68945 4.39453-0.244141c1.12305-0.0488281 1.51367 0.0488281 2.34375 0.878906l2.53906 2.49023-10.8398 10.8398-2.49023-2.49023c-0.830078-0.878906-0.976562-1.2207-0.927734-2.39258l0.292969-4.3457-6.68945-6.73828-6.83594 1.17188c-1.41602 0.292969-2.05078 0.195312-3.17383-0.878906l-8.93555-8.88672c-1.07422-1.02539-1.17188-1.70898-0.488281-3.36914l4.58984-11.4746c-6.10352-6.34766-17.041-7.51953-25.5859-4.58984-0.683594 0.244141-0.927734-0.390625-0.390625-0.78125Z"/>
  </g>
  <text style="stroke:none;fill:black;font-family:sans-serif;font-size:13;font-weight:bold;" transform="matrix(1 0 0 1 1289 1953)">Exporting</text>
  <text style="stroke:none;fill:black;font-family:sans-serif;font-size:13;" transform="matrix(1 0 0 1 1289 1971)">Symbols should be outlined when exporting to ensure the</text>
  <text style="stroke:none;fill:black;font-family:sans-serif;font-size:13;" transform="matrix(1 0 0 1 1289 1989)">design is preserved when submitting to Xcode.</text>
  <text id="template-version" style="stroke:none;fill:black;font-family:sans-serif;font-size:13;text-anchor:end;" transform="matrix(1 0 0 1 3036 1933)">Template v.7.0</text>
  <text style="stroke:none;fill:black;font-family:sans-serif;font-size:13;text-anchor:end;" transform="matrix(1 0 0 1 3036 1951)">Requires Xcode 26 or greater</text>
  <text id="descriptive-name" style="stroke:none;fill:black;font-family:sans-serif;font-size:13;text-anchor:end;" transform="matrix(1 0 0 1 3036 1969)">Generated from circle</text>
  <text style="stroke:none;fill:black;font-family:sans-serif;font-size:13;text-anchor:end;" transform="matrix(1 0 0 1 3036 1987)">Typeset at 100.0 points</text>
  <text style="stroke:none;fill:black;font-family:sans-serif;font-size:13;" transform="matrix(1 0 0 1 263 726)">Small</text>
  <text style="stroke:none;fill:black;font-family:sans-serif;font-size:13;" transform="matrix(1 0 0 1 263 1156)">Medium</text>
  <text style="stroke:none;fill:black;font-family:sans-serif;font-size:13;" transform="matrix(1 0 0 1 263 1586)">Large</text>
 </g>
 <g id="Guides">
  <g id="H-reference" style="fill:#27AAE1;stroke:none;" transform="matrix(1 0 0 1 339 696)">
   <path d="M0.993654 0L3.63775 0L29.3281-67.1323L30.0303-67.1323L30.0303-70.459L28.1226-70.459ZM11.6885-24.4799L46.9815-24.4799L46.2315-26.7285L12.4385-26.7285ZM55.1196 0L57.7637 0L30.6382-70.459L29.4326-70.459L29.4326-67.1323Z"/>
  </g>
  <line id="Baseline-S" style="fill:none;stroke:#27AAE1;opacity:1;stroke-width:0.5;" x1="263" x2="3036" y1="696" y2="696"/>
  <line id="Capline-S" style="fill:none;stroke:#27AAE1;opacity:1;stroke-width:0.5;" x1="263" x2="3036" y1="625.541" y2="625.541"/>
  <g id="H-reference" style="fill:#27AAE1;stroke:none;" transform="matrix(1 0 0 1 339 1126)">
   <path d="M0.993654 0L3.63775 0L29.3281-67.1323L30.0303-67.1323L30.0303-70.459L28.1226-70.459ZM11.6885-24.4799L46.9815-24.4799L46.2315-26.7285L12.4385-26.7285ZM55.1196 0L57.7637 0L30.6382-70.459L29.4326-70.459L29.4326-67.1323Z"/>
  </g>
  <line id="Baseline-M" style="fill:none;stroke:#27AAE1;opacity:1;stroke-width:0.5;" x1="263" x2="3036" y1="1126" y2="1126"/>
  <line id="Capline-M" style="fill:none;stroke:#27AAE1;opacity:1;stroke-width:0.5;" x1="263" x2="3036" y1="1055.54" y2="1055.54"/>
  <g id="H-reference" style="fill:#27AAE1;stroke:none;" transform="matrix(1 0 0 1 339 1556)">
   <path d="M0.993654 0L3.63775 0L29.3281-67.1323L30.0303-67.1323L30.0303-70.459L28.1226-70.459ZM11.6885-24.4799L46.9815-24.4799L46.2315-26.7285L12.4385-26.7285ZM55.1196 0L57.7637 0L30.6382-70.459L29.4326-70.459L29.4326-67.1323Z"/>
  </g>
  <line id="Baseline-L" style="fill:none;stroke:#27AAE1;opacity:1;stroke-width:0.5;" x1="263" x2="3036" y1="1556" y2="1556"/>
  <line id="Capline-L" style="fill:none;stroke:#27AAE1;opacity:1;stroke-width:0.5;" x1="263" x2="3036" y1="1485.54" y2="1485.54"/>
  <line id="right-margin-Black-S" style="fill:none;stroke:#00AEEF;stroke-width:0.5;opacity:1.0;" x1="2982.23" x2="2982.23" y1="600.785" y2="720.121"/>
  <line id="left-margin-Black-S" style="fill:none;stroke:#00AEEF;stroke-width:0.5;opacity:1.0;" x1="2884.57" x2="2884.57" y1="600.785" y2="720.121"/>
  <line id="right-margin-Regular-S" style="fill:none;stroke:#00AEEF;stroke-width:0.5;opacity:1.0;" x1="1496.11" x2="1496.11" y1="600.785" y2="720.121"/>
  <line id="left-margin-Regular-S" style="fill:none;stroke:#00AEEF;stroke-width:0.5;opacity:1.0;" x1="1403.58" x2="1403.58" y1="600.785" y2="720.121"/>
  <line id="right-margin-Ultralight-S" style="fill:none;stroke:#00AEEF;stroke-width:0.5;opacity:1.0;" x1="603.773" x2="603.773" y1="600.785" y2="720.121"/>
  <line id="left-margin-Ultralight-S" style="fill:none;stroke:#00AEEF;stroke-width:0.5;opacity:1.0;" x1="515.649" x2="515.649" y1="600.785" y2="720.121"/>
 </g>
 <g id="Symbols">
  <g id="Black-S" transform="matrix(1 0 0 1 2884.57 696)">
   <path class="SFSymbolsPreviewWireframe" d="M48.83 6.05445C59.0699 6.05445 60.0376-0.525942 64.1673-0.525942C68.2887-0.525942 68.9486 6.05445 80.1683 6.05445L80.4956 6.05445C82.982 6.05445 84.9719 4.06456 84.9719 1.57905C84.9719-0.866934 82.982-2.85502 80.4956-2.85502L80.1683-2.85502C78.2647-2.85502 76.6768-3.50707 73.7103-5.63429C71.61-7.18128 68.4705-9.43535 64.1673-9.43535C59.8715-9.43535 56.733-7.18777 54.6327-5.64356C52.3715-3.98077 50.9849-2.85502 48.83-2.85502C46.6761-2.85502 45.2893-3.98077 43.0282-5.64356C40.9279-7.18777 37.7894-9.43535 33.4926-9.43535C29.1903-9.43535 26.049-7.18128 23.9488-5.63429C20.9823-3.50707 19.3961-2.85502 17.4917-2.85502L17.1644-2.85502C14.6771-2.85502 12.689-0.866934 12.689 1.57905C12.689 4.06456 14.6771 6.05445 17.1644 6.05445L17.4917 6.05445C28.7114 6.05445 29.3712-0.525942 33.4926-0.525942C37.6224-0.525942 38.591 6.05445 48.83 6.05445Z"/>
   <path class="monochrome-0 multicolor-0:black hierarchical-0:secondary SFSymbolsPreviewWireframe" d="M48.8281 6.73828C72.0215 6.73828 90.8203-12.0605 90.8203-35.2539C90.8203-58.4473 72.0215-77.2461 48.8281-77.2461C25.6348-77.2461 6.83594-58.4473 6.83594-35.2539C6.83594-12.0605 25.6348 6.73828 48.8281 6.73828ZM48.8281-7.42188C33.4473-7.42188 20.9961-19.873 20.9961-35.2539C20.9961-50.6348 33.4473-63.0859 48.8281-63.0859C64.209-63.0859 76.6602-50.6348 76.6602-35.2539C76.6602-19.873 64.209-7.42188 48.8281-7.42188Z" data-clipstroke-keyframes="0 4 0 0.49909934 1.5010297 0 0.24858454 0.2505148 1.749485 0 0.49588796 0.0032113674 1.996659 0 0.7506426 0.7484567 1.251544 0 1 0.49909934 1.5010297"/>
   <path class="monochrome-1 multicolor-1:black hierarchical-1:primary SFSymbolsPreviewWireframe" d="M48.83-12.5532C59.0699-12.5532 60.0376-19.1336 64.1673-19.1336C68.2887-19.1336 68.9486-12.5532 80.1683-12.5532L80.4956-12.5532C82.982-12.5532 84.9719-14.5412 84.9719-17.0286C84.9719-19.4736 82.982-21.4617 80.4956-21.4617L80.1683-21.4617C78.2647-21.4617 76.6768-22.1147 73.7103-24.2419C71.61-25.7889 68.4705-28.0421 64.1673-28.0421C59.8715-28.0421 56.733-25.7954 54.6327-24.2512C52.3715-22.5884 50.9849-21.4617 48.83-21.4617C46.6761-21.4617 45.2893-22.5884 43.0282-24.2512C40.9279-25.7954 37.7894-28.0421 33.4926-28.0421C29.1903-28.0421 26.049-25.7889 23.9488-24.2419C20.9823-22.1147 19.3961-21.4617 17.4917-21.4617L17.1644-21.4617C14.6771-21.4617 12.689-19.4736 12.689-17.0286C12.689-14.5412 14.6771-12.5532 17.1644-12.5532L17.4917-12.5532C28.7114-12.5532 29.3712-19.1336 33.4926-19.1336C37.6224-19.1336 38.591-12.5532 48.83-12.5532Z"/>
   <path class="monochrome-2 multicolor-2:black hierarchical-2:primary SFSymbolsPreviewWireframe" d="M48.83-31.16C59.0699-31.16 60.0376-37.7403 64.1673-37.7403C68.2887-37.7403 68.9486-31.16 80.1683-31.16L80.4956-31.16C82.982-31.16 84.9719-33.148 84.9719-35.6363C84.9719-38.0794 82.982-40.0694 80.4956-40.0694L80.1683-40.0694C78.2647-40.0694 76.6768-40.7205 73.7103-42.8477C71.61-44.3947 68.4705-46.6498 64.1673-46.6498C59.8715-46.6498 56.733-44.4012 54.6327-42.857C52.3715-41.1942 50.9849-40.0694 48.83-40.0694C46.6761-40.0694 45.2893-41.1942 43.0282-42.857C40.9279-44.4012 37.7894-46.6498 33.4926-46.6498C29.1903-46.6498 26.049-44.3947 23.9488-42.8477C20.9823-40.7205 19.3961-40.0694 17.4917-40.0694L17.1644-40.0694C14.6771-40.0694 12.689-38.0794 12.689-35.6363C12.689-33.148 14.6771-31.16 17.1644-31.16L17.4917-31.16C28.7114-31.16 29.3712-37.7403 33.4926-37.7403C37.6224-37.7403 38.591-31.16 48.83-31.16Z"/>
  </g>
  <g id="Regular-S" transform="matrix(1 0 0 1 1403.58 696)">
   <path class="SFSymbolsPreviewWireframe" d="M46.2796 4.83494C55.4988 4.83494 56.7388-1.55246 61.2034-1.55246C65.7424-1.55246 66.4867 4.83494 76.8735 4.83494L77.0905 4.83494C78.8405 4.83494 80.2618 3.41356 80.2618 1.63783C80.2618-0.0983657 78.8405-1.51876 77.0905-1.51876L76.8735-1.51876C74.1033-1.51876 72.369-2.61882 69.816-4.4419C67.7709-5.93372 64.9993-7.90614 61.2034-7.90614C57.3064-7.90614 54.509-5.85835 52.4639-4.3417C50.2854-2.70652 48.7506-1.51876 46.2796-1.51876C43.7829-1.51876 42.2481-2.70652 40.0696-4.3417C38.0245-5.85835 35.2271-7.90614 31.3558-7.90614C27.5342-7.90614 24.7616-5.93372 22.7164-4.4419C20.1635-2.61882 18.4301-1.51876 15.6858-1.51876L15.4688-1.51876C13.692-1.51876 12.2716-0.0983657 12.2716 1.63783C12.2716 3.41356 13.692 4.83494 15.4688 4.83494L15.6858 4.83494C26.0726 4.83494 26.8168-1.55246 31.3558-1.55246C35.8205-1.55246 37.0347 4.83494 46.2796 4.83494Z"/>
   <path class="monochrome-0 multicolor-0:black hierarchical-0:secondary SFSymbolsPreviewWireframe" d="M46.2402 4.15039C68.0176 4.15039 85.6934-13.4766 85.6934-35.2539C85.6934-57.0312 68.0176-74.6582 46.2402-74.6582C24.5117-74.6582 6.83594-57.0312 6.83594-35.2539C6.83594-13.4766 24.5117 4.15039 46.2402 4.15039ZM46.2402-3.27148C28.5645-3.27148 14.3066-17.5781 14.3066-35.2539C14.3066-52.9297 28.5645-67.2363 46.2402-67.2363C63.916-67.2363 78.2227-52.9297 78.2227-35.2539C78.2227-17.5781 63.916-3.27148 46.2402-3.27148Z" data-clipstroke-keyframes="0 4 0 0.49914446 1.5008684 0 0.24828511 0.25085935 1.7491465 0 0.49580374 0.0033407123 1.9966576 0 0.75060123 0.7485432 1.2514638 0 1 0.49914446 1.5008684"/>
   <path class="monochrome-1 multicolor-1:black hierarchical-1:primary SFSymbolsPreviewWireframe" d="M46.2796-13.9685C55.4988-13.9685 56.7388-20.3559 61.2034-20.3559C65.7424-20.3559 66.4867-13.9685 76.8735-13.9685L77.0905-13.9685C78.8405-13.9685 80.2618-15.3889 80.2618-17.1656C80.2618-18.9276 78.8405-20.348 77.0905-20.348L76.8735-20.348C74.1033-20.348 72.369-21.4222 69.816-23.2453C67.7709-24.7371 64.9993-26.7354 61.2034-26.7354C57.3064-26.7354 54.509-24.6618 52.4639-23.1452C50.2854-21.5099 48.7506-20.348 46.2796-20.348C43.7829-20.348 42.2481-21.5099 40.0696-23.1452C38.0245-24.6618 35.2271-26.7354 31.3558-26.7354C27.5342-26.7354 24.7616-24.7371 22.7164-23.2453C20.1635-21.4222 18.4301-20.348 15.6858-20.348L15.4688-20.348C13.692-20.348 12.2716-18.9276 12.2716-17.1656C12.2716-15.3889 13.692-13.9685 15.4688-13.9685L15.6858-13.9685C26.0726-13.9685 26.8168-20.3559 31.3558-20.3559C35.8205-20.3559 37.0347-13.9685 46.2796-13.9685Z"/>
   <path class="monochrome-2 multicolor-2:black hierarchical-2:primary SFSymbolsPreviewWireframe" d="M46.2796-32.7977C55.4988-32.7977 56.7388-39.1851 61.2034-39.1851C65.7424-39.1851 66.4867-32.7977 76.8735-32.7977L77.0905-32.7977C78.8405-32.7977 80.2618-34.2181 80.2618-35.9691C80.2618-37.73 78.8405-39.1514 77.0905-39.1514L76.8735-39.1514C74.1033-39.1514 72.369-40.2247 69.816-42.0477C67.7709-43.5396 64.9993-45.5388 61.2034-45.5388C57.3064-45.5388 54.509-43.4642 52.4639-41.9476C50.2854-40.3124 48.7506-39.1514 46.2796-39.1514C43.7829-39.1514 42.2481-40.3124 40.0696-41.9476C38.0245-43.4642 35.2271-45.5388 31.3558-45.5388C27.5342-45.5388 24.7616-43.5396 22.7164-42.0477C20.1635-40.2247 18.4301-39.1514 15.6858-39.1514L15.4688-39.1514C13.692-39.1514 12.2716-37.73 12.2716-35.9691C12.2716-34.2181 13.692-32.7977 15.4688-32.7977L15.6858-32.7977C26.0726-32.7977 26.8168-39.1851 31.3558-39.1851C35.8205-39.1851 37.0347-32.7977 46.2796-32.7977Z"/>
  </g>
  <g id="Ultralight-S" transform="matrix(1 0 0 1 515.649 696)">
   <path class="SFSymbolsPreviewWireframe" d="M44.0725 2.64115C52.0393 2.64115 53.3391-3.64312 58.7752-3.64312C64.3299-3.64312 65.1621 2.64115 74.2685 2.64115L74.4266 2.64115C75.2903 2.64115 75.9795 1.95194 75.9795 1.06956C75.9795 0.226704 75.2903-0.483391 74.4266-0.483391L74.2685-0.483391C70.7353-0.483391 68.7085-1.99417 66.3766-3.63331C64.3609-5.09565 62.0215-6.76762 58.7752-6.76762C55.4126-6.76762 53.0545-4.99793 51.0389-3.49606C48.9046-1.87559 47.0336-0.483391 44.0725-0.483391C41.0926-0.483391 39.2217-1.87559 37.0874-3.49606C35.0717-4.99793 32.7137-6.76762 29.3697-6.76762C26.1048-6.76762 23.7862-5.09565 21.7705-3.63331C19.4386-1.99417 17.391-0.483391 13.8765-0.483391L13.7184-0.483391C12.8568-0.483391 12.1468 0.226704 12.1468 1.06956C12.1468 1.95194 12.8568 2.64115 13.7184 2.64115L13.8765 2.64115C22.9829 2.64115 23.815-3.64312 29.3697-3.64312C34.8058-3.64312 36.0869 2.64115 44.0725 2.64115Z"/>
   <path class="monochrome-0 multicolor-0:black hierarchical-0:secondary SFSymbolsPreviewWireframe" d="M44.0606 1.97072C64.6118 1.97072 81.2886-14.7026 81.2886-35.2539C81.2886-55.8052 64.6118-72.4785 44.0606-72.4785C23.5127-72.4785 6.83594-55.8052 6.83594-35.2539C6.83594-14.7026 23.5127 1.97072 44.0606 1.97072ZM44.0606-0.274438C24.7046-0.274438 9.0391-15.898 9.0391-35.2539C9.0391-54.6099 24.7046-70.2334 44.0606-70.2334C63.4165-70.2334 79.04-54.6099 79.04-35.2539C79.04-15.898 63.4165-0.274438 44.0606-0.274438Z" data-clipstroke-keyframes="0 4 0 0.49911258 1.5011578 0 0.24859153 0.25052106 1.7495481 0 0.49577427 0.0033383023 1.9966562 0 0.75064886 0.74846375 1.2516088 0 1 0.49911258 1.5011578"/>
   <path class="monochrome-1 multicolor-1:black hierarchical-1:primary SFSymbolsPreviewWireframe" d="M44.0725-15.6458C52.0393-15.6458 53.3391-21.93 58.7752-21.93C64.3299-21.93 65.1621-15.6458 74.2685-15.6458L74.4266-15.6458C75.2903-15.6458 75.9795-16.3559 75.9795-17.2174C75.9795-18.0789 75.2903-18.789 74.4266-18.789L74.2685-18.789C70.7353-18.789 68.7085-20.2811 66.3766-21.9202C64.3609-23.3826 62.0215-25.0732 58.7752-25.0732C55.4126-25.0732 53.0545-23.2849 51.0389-21.783C48.9046-20.1626 47.0336-18.789 44.0725-18.789C41.0926-18.789 39.2217-20.1626 37.0874-21.783C35.0717-23.2849 32.7137-25.0732 29.3697-25.0732C26.1048-25.0732 23.7862-23.3826 21.7705-21.9202C19.4386-20.2811 17.391-18.789 13.8765-18.789L13.7184-18.789C12.8568-18.789 12.1468-18.0789 12.1468-17.2174C12.1468-16.3559 12.8568-15.6458 13.7184-15.6458L13.8765-15.6458C22.9829-15.6458 23.815-21.93 29.3697-21.93C34.8058-21.93 36.0869-15.6458 44.0725-15.6458Z"/>
   <path class="monochrome-2 multicolor-2:black hierarchical-2:primary SFSymbolsPreviewWireframe" d="M44.0725-33.9514C52.0393-33.9514 53.3391-40.2357 58.7752-40.2357C64.3299-40.2357 65.1621-33.9514 74.2685-33.9514L74.4266-33.9514C75.2903-33.9514 75.9795-34.6615 75.9795-35.5044C75.9795-36.3867 75.2903-37.0759 74.4266-37.0759L74.2685-37.0759C70.7353-37.0759 68.7085-38.589 66.3766-40.2281C64.3609-41.6904 62.0215-43.3602 58.7752-43.3602C55.4126-43.3602 53.0545-41.5928 51.0389-40.0908C48.9046-38.4704 47.0336-37.0759 44.0725-37.0759C41.0926-37.0759 39.2217-38.4704 37.0874-40.0908C35.0717-41.5928 32.7137-43.3602 29.3697-43.3602C26.1048-43.3602 23.7862-41.6904 21.7705-40.2281C19.4386-38.589 17.391-37.0759 13.8765-37.0759L13.7184-37.0759C12.8568-37.0759 12.1468-36.3867 12.1468-35.5044C12.1468-34.6615 12.8568-33.9514 13.7184-33.9514L13.8765-33.9514C22.9829-33.9514 23.815-40.2357 29.3697-40.2357C34.8058-40.2357 36.0869-33.9514 44.0725-33.9514Z"/>
  </g>
 </g>
</svg>
