<svg width="172" height="172" viewBox="0 0 172 172" fill="none" xmlns="http://www.w3.org/2000/svg">
<g clip-path="url(#clip0_4103_808)">
<rect x="8" y="8" width="156" height="156" rx="78" fill="white"/>
<path d="M69.3642 136.89C-4.06305 163.876 -68.2013 78.0533 -129.686 105.481C-166.399 114.329 -240.534 132.997 -243.365 136.89C-246.196 140.783 -248.968 226.989 -250 269.605L295.396 359.409C332.552 313.549 396.336 208.733 354.226 156.355C301.589 90.8824 142.791 109.905 69.3642 136.89Z" fill="#50BEFC" fill-opacity="0.62"/>
<path d="M152.376 143.008C90.6717 165.69 36.7735 93.5528 -14.8944 116.607C-45.7465 124.044 -108.045 139.736 -110.424 143.008C-112.803 146.28 -115.133 218.74 -116 254.561L342.32 330.045C373.544 291.498 427.145 203.395 391.758 159.369C347.524 104.336 214.08 120.326 152.376 143.008Z" fill="#3BB8ED" fill-opacity="0.48"/>
</g>
<rect x="4" y="4" width="164" height="164" rx="82" stroke="#ADE5FC" stroke-width="8"/>
<defs>
<clipPath id="clip0_4103_808">
<rect x="8" y="8" width="156" height="156" rx="78" fill="white"/>
</clipPath>
</defs>
</svg>
